<svg width="379.681" height="81.281" viewBox="0 0 379.681 81.281" xmlns="http://www.w3.org/2000/svg"><g id="svgGroup" stroke-linecap="round" fill-rule="evenodd" font-size="9pt" stroke="#000" stroke-width="0.25mm" fill="black" style="stroke:#000;stroke-width:0.25mm;fill:#333333"><path d="M 33.005 0.395 A 16.981 16.981 0 0 0 22.936 4.64 A 41.087 41.087 0 0 0 17.026 10.531 C 14.37 13.762 12.304 17.176 10.19 20.692 A 81.464 81.464 0 0 1 11.343 11.757 C 11.762 9.265 12.181 6.809 12.402 4.353 A 42.25 42.25 0 0 0 12.503 3.006 C 12.499 2.07 11.812 1.283 10.913 1.065 A 6.024 6.024 0 0 0 9.07 0.618 A 4.858 4.858 0 0 0 8.722 0.605 A 3.235 3.235 0 0 0 6.256 1.591 A 2.957 2.957 0 0 0 6.209 1.643 C 4.802 3.188 4.234 5.223 3.665 7.196 A 79.144 79.144 0 0 1 3.445 7.951 C 1.336 16.193 0.722 24.713 0.284 33.178 A 228.481 228.481 0 0 0 0.006 43.262 A 182.313 182.313 0 0 0 0.005 43.942 A 126.769 126.769 0 0 0 1.71 65.78 C 2.027 67.385 2.928 69.207 4.683 69.572 C 4.969 69.629 5.267 69.658 5.568 69.658 A 4.647 4.647 0 0 0 5.786 69.653 A 3.764 3.764 0 0 0 8.431 68.502 A 3.436 3.436 0 0 0 8.998 66.541 A 6.36 6.36 0 0 0 9 66.402 C 9 65.945 8.953 65.479 8.907 65.02 A 16.728 16.728 0 0 1 8.817 63.894 A 145.704 145.704 0 0 1 8.493 53.692 A 234.136 234.136 0 0 1 8.518 50.35 C 8.568 46.872 8.684 43.393 8.793 39.919 C 8.928 37.125 8.987 34.313 9.38 31.542 A 37.479 37.479 0 0 1 14.645 19.717 C 17.859 14.665 21.79 9.923 26.812 6.583 C 28.188 5.685 29.845 4.933 31.512 4.933 A 5.466 5.466 0 0 1 31.698 4.936 A 5.029 5.029 0 0 1 33.022 5.156 A 4.846 4.846 0 0 1 35.974 8.895 C 35.995 9.003 36.014 9.111 36.03 9.22 A 5.852 5.852 0 0 1 36.034 9.254 A 20.666 20.666 0 0 1 36.301 12.681 C 36.301 14.432 36.124 16.187 35.91 17.917 A 54.185 54.185 0 0 1 32.557 30.679 A 72.243 72.243 0 0 1 30.808 34.747 A 30.062 30.062 0 0 0 23.646 37.431 C 21.923 38.366 20.419 39.465 19.242 40.714 A 12.09 12.09 0 0 0 18.481 41.604 A 7.734 7.734 0 0 0 16.718 45.982 A 4.834 4.834 0 0 0 16.718 46.057 A 4.781 4.781 0 0 0 16.718 46.111 A 4.376 4.376 0 0 0 16.995 47.612 A 4.17 4.17 0 0 0 20.043 49.864 C 20.486 49.962 20.94 50.009 21.382 50.009 A 6.183 6.183 0 0 0 21.543 50.007 A 14.853 14.853 0 0 0 30.246 46.581 A 26.164 26.164 0 0 0 30.744 46.195 C 33.897 43.663 36.369 40.398 38.411 36.932 A 13.425 13.425 0 0 1 38.849 36.908 C 39.338 36.888 39.973 36.881 40.694 36.881 A 162.692 162.692 0 0 1 42.21 36.889 C 44.005 36.906 46.023 36.944 47.597 36.95 A 106.154 106.154 0 0 0 47.995 36.951 C 48.407 36.951 48.781 36.948 49.103 36.941 A 22.863 22.863 0 0 0 49.507 36.93 C 49.853 36.916 50.115 36.367 50.183 35.817 A 2.227 2.227 0 0 0 50.2 35.545 C 50.2 35.286 50.15 35.048 50.037 34.892 A 0.433 0.433 0 0 0 49.807 34.723 A 5.944 5.944 0 0 0 49.094 34.572 C 46.633 34.179 41.162 34.203 39.752 34.2 A 41.114 41.114 0 0 0 44.526 15.628 A 35.686 35.686 0 0 0 44.401 12.651 A 20.568 20.568 0 0 0 44.368 12.305 A 14.285 14.285 0 0 0 40.693 3.676 A 10.516 10.516 0 0 0 33.241 0.392 A 9.079 9.079 0 0 0 33.005 0.395 Z M 28.39 39.752 A 37.705 37.705 0 0 0 29.389 38.09 A 142.56 142.56 0 0 1 29.06 38.224 C 25.844 39.535 21.948 41.029 20.206 43.804 C 19.858 44.358 19.522 45.052 19.466 45.745 A 2.471 2.471 0 0 0 19.458 45.944 A 2.287 2.287 0 0 0 19.461 46.065 A 1.968 1.968 0 0 0 19.688 46.895 C 19.921 47.223 20.257 47.344 20.616 47.344 A 1.859 1.859 0 0 0 20.925 47.317 C 21.092 47.288 21.259 47.24 21.419 47.179 A 3.401 3.401 0 0 0 21.913 46.944 C 24.171 45.571 26.578 42.604 28.39 39.752 Z" id="0" vector-effect="non-scaling-stroke"/><path d="M 53.782 64.057 A 5.74 5.74 0 0 0 55.378 63.862 C 56.642 63.492 57.377 62.547 57.581 60.634 A 11.506 11.506 0 0 0 57.641 59.414 A 16.325 16.325 0 0 0 57.634 58.966 A 18.278 18.278 0 0 0 57.629 58.811 C 57.507 55.396 57.442 53.273 57.442 51.116 A 123.819 123.819 0 0 1 57.478 48.21 C 57.506 47.026 57.549 45.698 57.609 44.073 A 10.471 10.471 0 0 1 57.981 41.816 C 59.192 37.244 63.085 30.936 66.08 27.234 C 66.89 26.233 67.577 25.527 68.21 25.216 A 1.568 1.568 0 0 1 68.903 25.038 A 1.297 1.297 0 0 1 69.497 25.186 C 70.096 25.489 70.689 26.272 71.347 27.641 A 18.34 18.34 0 0 1 71.404 27.759 C 73.195 31.549 76.014 36.11 78.701 38.273 A 8.763 8.763 0 0 0 79.249 38.682 C 81.295 40.08 83.095 40.676 84.808 40.676 A 8.2 8.2 0 0 0 87.59 40.166 C 88.998 39.663 90.407 38.815 91.912 37.746 A 44.082 44.082 0 0 0 92.214 37.53 A 4.22 4.22 0 0 0 92.601 37.086 C 92.851 36.751 92.991 36.438 93.045 36.157 A 1.386 1.386 0 0 0 93.07 35.899 A 1.072 1.072 0 0 0 92.863 35.25 C 92.637 34.946 92.249 34.77 91.808 34.77 A 1.779 1.779 0 0 0 91.371 34.826 C 91.203 34.868 91.032 34.936 90.864 35.032 A 2.231 2.231 0 0 0 90.814 35.061 C 89.303 36.206 87.418 37.537 85.654 37.793 A 4.08 4.08 0 0 1 85.068 37.836 A 3.104 3.104 0 0 1 83.065 37.137 C 82.779 36.908 82.508 36.615 82.253 36.251 A 6.545 6.545 0 0 1 81.724 35.338 C 79.723 30.803 78.642 24.564 75.423 21.629 A 7.254 7.254 0 0 0 75.334 21.549 A 6.862 6.862 0 0 0 73.885 20.557 A 5.573 5.573 0 0 0 71.349 19.949 C 68.212 19.949 65.001 22.503 62.613 25.846 C 61.073 28.003 59.522 30.349 58.364 32.11 A 1312.771 1312.771 0 0 1 57.541 33.361 A 105.516 105.516 0 0 1 57.553 33.27 C 57.779 31.607 58.08 29.676 58.494 26.523 A 342.341 342.341 0 0 0 58.795 24.165 C 58.846 23.756 58.874 23.364 58.874 22.993 C 58.874 21.382 58.351 20.177 56.928 19.815 A 4.001 4.001 0 0 0 55.941 19.702 A 5.475 5.475 0 0 0 55.777 19.705 A 4.687 4.687 0 0 0 52.857 20.494 C 52.299 20.924 51.788 21.597 51.345 22.653 A 10.095 10.095 0 0 0 51.186 23.06 A 20.612 20.612 0 0 0 50.443 25.755 C 49.836 28.567 49.351 32.454 49.016 36.668 A 166.62 166.62 0 0 0 48.696 41.671 C 48.634 42.933 48.607 44.197 48.607 45.445 A 101.01 101.01 0 0 0 48.82 51.83 C 48.977 54.293 49.198 56.532 49.404 58.367 A 168.475 168.475 0 0 0 49.442 58.699 C 49.782 61.676 50.192 64.057 53.77 64.057 A 8.555 8.555 0 0 0 53.782 64.057 Z" id="1" vector-effect="non-scaling-stroke"/><path d="M 97.789 21.193 C 91.308 26.046 86.407 38.553 86.407 48.623 A 25.06 25.06 0 0 0 86.897 53.736 C 87.227 55.311 87.73 56.752 88.424 58.003 A 11.447 11.447 0 0 0 88.733 58.527 A 13.139 13.139 0 0 0 90.311 60.591 C 91.831 62.196 93.511 63 95.191 63.162 A 6.731 6.731 0 0 0 95.839 63.194 A 8.409 8.409 0 0 0 101.165 61.085 C 102.922 59.622 104.377 57.491 105.231 54.986 C 106.684 50.724 107.327 45.885 107.4 41.529 A 50.308 50.308 0 0 0 107.407 40.685 A 45.688 45.688 0 0 0 107.238 36.695 C 107.148 35.671 107.023 34.711 106.869 33.837 A 21.484 21.484 0 0 0 106.458 31.963 A 69.962 69.962 0 0 0 108.461 32.599 C 111.325 33.454 113.979 33.954 118.791 34.203 A 105.403 105.403 0 0 0 119.821 34.251 A 3.526 3.526 0 0 0 119.968 34.254 A 2.634 2.634 0 0 0 120.494 34.205 C 120.96 34.11 121.252 33.884 121.396 33.601 A 1.044 1.044 0 0 0 121.507 33.123 C 121.507 32.48 120.985 31.759 120.167 31.537 A 1.956 1.956 0 0 0 119.89 31.483 A 38.387 38.387 0 0 1 118.285 31.25 C 113.387 30.443 105.407 28.363 102.964 26 A 3.876 3.876 0 0 1 102.797 25.827 A 17.728 17.728 0 0 0 103.093 25.528 C 103.568 25.037 104.127 24.42 104.539 23.984 A 18.496 18.496 0 0 1 104.762 23.752 A 3.995 3.995 0 0 0 104.94 23.559 C 105.28 23.163 105.477 22.765 105.551 22.384 A 1.832 1.832 0 0 0 105.585 22.034 A 1.918 1.918 0 0 0 104.979 20.67 A 3.03 3.03 0 0 0 104.215 20.125 A 5.823 5.823 0 0 0 102.532 19.508 A 3.838 3.838 0 0 0 101.884 19.453 C 100.828 19.453 99.535 19.885 97.789 21.193 Z M 101.111 55.974 A 15.991 15.991 0 0 0 101.847 54.283 A 18.282 18.282 0 0 0 102.079 53.617 C 103.228 50.113 103.865 44.928 103.865 40.381 A 46.075 46.075 0 0 0 103.847 39.088 C 103.725 34.759 102.976 31.263 101.482 30.801 C 101.287 30.74 101.095 30.711 100.905 30.711 A 2.368 2.368 0 0 0 99.362 31.368 C 96.597 33.756 94.625 42.191 94.14 48.963 A 42.917 42.917 0 0 0 94.024 52.008 A 31.316 31.316 0 0 0 94.039 52.987 C 94.071 54.022 94.157 54.948 94.301 55.72 A 10.003 10.003 0 0 0 94.508 56.615 C 95.057 58.554 96.056 59.5 97.192 59.5 A 2.335 2.335 0 0 0 97.997 59.349 C 99.056 58.961 100.168 57.825 101.111 55.974 Z" id="2" vector-effect="non-scaling-stroke"/><path d="M 162.74 53.775 A 11.468 11.468 0 0 0 163.97 56.5 C 165.38 58.735 167.391 59.874 169.477 59.874 C 171.438 59.874 173.466 58.867 175.123 56.816 A 12.437 12.437 0 0 0 176.295 55.071 A 22.376 22.376 0 0 0 177.582 52.262 C 179.418 47.521 180.833 40.731 181.973 36.013 A 123.261 123.261 0 0 1 182.215 35.03 A 3.097 3.097 0 0 0 182.266 34.786 C 182.288 34.658 182.298 34.54 182.298 34.433 C 182.298 34.148 182.227 33.937 182.111 33.79 A 0.743 0.743 0 0 0 181.506 33.52 C 181.131 33.52 180.705 33.725 180.427 34.059 A 1.313 1.313 0 0 0 180.193 34.472 A 95.204 95.204 0 0 0 178.951 38.435 C 177.425 43.636 175.978 49.392 173.703 53.74 A 10.442 10.442 0 0 1 173.17 54.651 C 172.519 55.637 171.886 56.127 171.294 56.181 A 1.21 1.21 0 0 1 171.184 56.186 A 1.432 1.432 0 0 1 170.224 55.773 C 169.833 55.422 169.473 54.854 169.155 54.094 A 11.87 11.87 0 0 1 168.725 52.869 C 165.844 43.097 169.357 28.494 162.545 26.291 A 6.085 6.085 0 0 0 161.146 26.011 A 5.908 5.908 0 0 0 160.682 25.993 A 8.042 8.042 0 0 0 155.871 27.858 C 154.131 29.18 152.569 31.044 151.254 32.908 A 41.514 41.514 0 0 0 150.603 33.859 A 29.544 29.544 0 0 1 150.555 32.712 A 52.668 52.668 0 0 1 150.54 31.406 A 106.121 106.121 0 0 1 150.556 29.661 C 150.571 28.776 150.593 27.86 150.611 26.943 A 140.705 140.705 0 0 0 150.646 24.142 C 150.646 22.36 150.587 20.711 150.382 19.452 C 149.642 14.908 147.195 12.786 144.173 12.786 A 7.714 7.714 0 0 0 141.809 13.181 C 140.588 13.576 139.324 14.261 138.08 15.222 A 16.561 16.561 0 0 0 137.69 15.532 A 25.717 25.717 0 0 0 134.567 18.654 C 130.487 23.408 126.912 30.054 125.113 33.438 A 735.679 735.679 0 0 0 125.053 33.552 C 125.786 30.107 126.951 26.588 127.763 22.908 A 3.96 3.96 0 0 0 127.836 22.464 A 3.227 3.227 0 0 0 127.853 22.131 A 2.253 2.253 0 0 0 127.532 20.919 C 127.07 20.175 126.134 19.759 124.894 19.667 A 4.381 4.381 0 0 0 124.571 19.655 A 3.477 3.477 0 0 0 121.717 21.138 C 121.089 21.925 120.535 23.024 119.977 24.432 A 41.853 41.853 0 0 0 118.613 28.568 C 116.617 35.731 115.507 45.141 115.507 50.45 A 30.924 30.924 0 0 0 115.528 51.637 C 115.555 52.331 115.607 52.921 115.686 53.386 A 6.18 6.18 0 0 0 115.727 53.604 C 116.289 56.325 117.283 57.208 118.738 57.208 C 118.991 57.208 119.259 57.181 119.541 57.132 A 4.943 4.943 0 0 0 120.884 56.719 C 122.212 56.068 122.749 54.816 122.997 52.9 A 15.626 15.626 0 0 0 123.012 52.784 A 60.122 60.122 0 0 1 129.064 34.036 C 132.495 27.148 136.513 21.596 138.959 18.8 A 28.23 28.23 0 0 1 139.445 18.258 A 7.562 7.562 0 0 1 139.943 17.762 C 140.504 17.257 140.977 17.025 141.365 17.019 A 0.99 0.99 0 0 1 141.38 17.019 A 0.943 0.943 0 0 1 142.18 17.486 C 142.38 17.782 142.521 18.21 142.604 18.743 A 6.49 6.49 0 0 1 142.641 19.018 A 11.986 11.986 0 0 1 142.69 19.599 C 142.705 19.831 142.716 20.083 142.723 20.354 A 33.332 33.332 0 0 1 142.733 21.222 A 69.778 69.778 0 0 1 142.644 24.459 C 142.353 30.573 141.402 39.744 140.525 46.834 A 389.456 389.456 0 0 1 140.265 48.886 C 140.18 49.543 140.139 50.151 140.139 50.712 A 8.714 8.714 0 0 0 140.304 52.478 C 140.432 53.095 140.634 53.622 140.902 54.058 A 3.254 3.254 0 0 0 143.611 55.621 A 8.58 8.58 0 0 0 143.927 55.636 A 6.529 6.529 0 0 0 144.106 55.639 A 3.142 3.142 0 0 0 145.25 55.463 C 146.457 54.995 146.968 53.482 147.92 49.638 A 274.137 274.137 0 0 0 148.166 48.636 C 150.246 40.098 153.856 33.134 156.987 30.55 C 157.573 30.068 158.095 29.793 158.55 29.746 A 1.348 1.348 0 0 1 158.689 29.739 C 159.905 29.739 160.611 31.479 160.731 35.347 C 160.907 41.032 161.258 47.174 162.176 51.558 A 24.37 24.37 0 0 0 162.74 53.775 Z" id="3" vector-effect="non-scaling-stroke"/><path d="M 226.882 32.583 A 43.4 43.4 0 0 0 226.683 32.603 C 225.519 32.721 219.481 33.362 214.819 34.412 C 214.869 33.963 214.908 33.516 214.936 33.072 C 214.968 32.545 214.985 32.022 214.985 31.505 A 19.398 19.398 0 0 0 213.778 24.483 C 212.338 20.804 209.599 18.217 205.509 17.853 A 11.398 11.398 0 0 0 204.499 17.809 A 12.966 12.966 0 0 0 203.133 17.883 A 14.426 14.426 0 0 0 202.659 17.941 A 12.036 12.036 0 0 0 196.022 21.596 C 193.004 24.56 190.67 28.69 188.913 31.708 C 189.319 27.828 189.59 26.409 190.361 21.884 A 1052.221 1052.221 0 0 0 190.381 21.764 C 190.433 21.458 190.46 21.17 190.46 20.902 A 2.657 2.657 0 0 0 190.16 19.59 C 189.676 18.722 188.586 18.258 186.73 18.248 C 186.721 18.248 186.711 18.248 186.702 18.248 C 185.164 18.248 184.055 18.956 183.165 20.699 A 10.896 10.896 0 0 0 182.705 21.741 C 180.709 27.044 179.392 36.294 179.138 42.896 C 178.995 46.624 178.907 50.579 178.907 54.551 A 265.766 265.766 0 0 0 178.909 55.452 C 178.937 63.865 179.371 72.278 180.516 78.68 A 3.29 3.29 0 0 0 180.946 79.839 C 181.571 80.853 182.694 81.281 183.775 81.281 A 4.088 4.088 0 0 0 184.504 81.215 A 5.915 5.915 0 0 0 185.681 80.886 C 186.874 80.399 187.453 79.536 187.453 78.189 A 5.17 5.17 0 0 0 187.44 77.835 A 5.802 5.802 0 0 0 187.435 77.768 A 175.915 175.915 0 0 1 187.037 71.224 A 211.336 211.336 0 0 1 186.848 62.21 A 213.955 213.955 0 0 1 187.051 52.811 C 187.236 48.644 187.533 44.99 187.893 42.235 A 45.397 45.397 0 0 1 188.279 39.749 C 190.138 33.829 198.055 22.106 202.836 21.129 A 3.516 3.516 0 0 1 202.842 21.128 A 2.416 2.416 0 0 1 203.211 21.082 A 2.201 2.201 0 0 1 203.312 21.079 A 2.462 2.462 0 0 1 205.348 22.346 C 206.074 23.424 206.561 25.121 206.815 27.177 A 30.133 30.133 0 0 1 207.025 30.846 A 40.051 40.051 0 0 1 206.926 33.613 A 42.76 42.76 0 0 1 206.92 33.705 C 206.856 34.595 206.763 35.499 206.642 36.406 A 38.297 38.297 0 0 0 204.114 37.262 C 200.871 38.493 196.957 40.523 193.633 44.01 A 9.111 9.111 0 0 0 191.929 46.524 C 191.67 47.094 191.478 47.678 191.353 48.262 A 7.811 7.811 0 0 0 191.177 49.896 C 191.177 53.049 193.197 55.805 197.17 55.825 A 8.655 8.655 0 0 0 197.214 55.825 C 198.338 55.825 199.618 55.607 201.051 55.118 A 18.939 18.939 0 0 0 202.734 54.449 A 16.853 16.853 0 0 0 208.917 49.296 A 30.433 30.433 0 0 0 214.4 37.038 A 79.028 79.028 0 0 1 216.664 36.502 C 220.457 35.658 224.834 34.918 226.985 34.658 A 2.087 2.087 0 0 0 227.438 34.554 C 227.958 34.368 228.198 33.999 228.206 33.629 A 0.886 0.886 0 0 0 228.206 33.61 A 0.971 0.971 0 0 0 227.852 32.874 C 227.643 32.697 227.347 32.58 226.978 32.58 C 226.946 32.58 226.914 32.581 226.882 32.583 Z M 204.048 46.151 A 33.924 33.924 0 0 0 206.198 39.091 A 23.85 23.85 0 0 0 198.874 42.842 A 23.848 23.848 0 0 0 195.628 45.909 C 194.912 46.716 194.415 47.863 194.205 49.009 A 6.633 6.633 0 0 0 194.093 50.198 A 4.618 4.618 0 0 0 194.288 51.58 C 194.592 52.543 195.266 53.214 196.386 53.214 A 3.294 3.294 0 0 0 196.976 53.158 C 197.522 53.058 198.153 52.823 198.875 52.422 A 12.448 12.448 0 0 0 199.886 51.791 A 9.048 9.048 0 0 0 201.72 50.067 C 202.605 48.991 203.381 47.655 204.048 46.151 Z" id="4" vector-effect="non-scaling-stroke"/><path d="M 234.795 0.001 A 3.458 3.458 0 0 0 234.722 0 A 3.653 3.653 0 0 0 231.776 1.671 C 231.304 2.297 230.902 3.059 230.552 3.892 A 19.404 19.404 0 0 0 230.164 4.899 A 57.299 57.299 0 0 0 228.731 9.596 A 77.223 77.223 0 0 0 227.955 12.858 A 211.788 211.788 0 0 0 225.948 12.927 C 224.066 13.002 222.568 13.091 221.543 13.188 A 1.182 1.182 0 0 0 220.975 13.388 C 220.594 13.651 220.407 14.125 220.407 14.584 C 220.407 15.211 220.755 15.812 221.432 15.812 A 893.725 893.725 0 0 1 227.365 15.837 A 115.477 115.477 0 0 0 226.089 25.136 C 225.728 28.83 225.529 32.524 225.48 36.014 A 120.98 120.98 0 0 0 225.468 37.71 A 101.059 101.059 0 0 0 225.672 44.301 C 225.929 48.204 226.425 51.472 227.137 53.658 C 229.005 59.396 233.15 63.329 237.522 63.329 A 7.276 7.276 0 0 0 238.968 63.184 C 241.324 62.707 243.68 61.032 245.72 57.834 A 22.463 22.463 0 0 0 247.344 54.685 C 249.34 50.055 250.927 43.471 251.72 37.89 A 64.147 64.147 0 0 0 252.103 34.632 A 2.848 2.848 0 0 0 252.113 34.477 A 2.502 2.502 0 0 0 252.114 34.389 C 252.114 33.551 251.673 33.223 251.163 33.223 C 250.534 33.223 249.801 33.721 249.66 34.374 C 248.177 41.25 246.744 49.395 242.836 56.163 A 14.562 14.562 0 0 1 242.072 57.359 C 241.13 58.675 240.254 59.302 239.455 59.399 A 1.83 1.83 0 0 1 239.234 59.413 C 236.701 59.413 234.972 54.051 234.358 48.691 A 88.26 88.26 0 0 1 233.827 38.701 A 109.851 109.851 0 0 1 233.835 37.334 C 233.902 31.938 234.358 26.541 234.985 21.546 A 182.245 182.245 0 0 1 235.786 15.892 A 1270.867 1270.867 0 0 0 239.057 15.913 C 240.199 15.918 241.412 15.922 242.756 15.922 C 243.744 15.922 244.376 15.093 244.514 14.265 A 2.064 2.064 0 0 0 244.543 13.926 A 1.472 1.472 0 0 0 244.299 13.074 C 244.1 12.792 243.775 12.607 243.308 12.607 A 218.794 218.794 0 0 0 242.555 12.609 C 240.717 12.615 238.878 12.644 236.748 12.681 A 2172.001 2172.001 0 0 0 236.318 12.689 C 236.609 11.023 236.905 9.452 237.194 8.002 A 196.477 196.477 0 0 1 237.7 5.545 A 25.847 25.847 0 0 0 237.905 4.5 C 237.98 4.057 238.034 3.614 238.041 3.187 A 5.611 5.611 0 0 0 238.042 3.102 A 2.812 2.812 0 0 0 237.109 0.79 C 236.869 0.593 236.574 0.423 236.214 0.288 A 4.829 4.829 0 0 0 235.544 0.093 A 4.053 4.053 0 0 0 235.029 0.013 A 3.585 3.585 0 0 0 234.795 0.001 Z" id="5" vector-effect="non-scaling-stroke"/><path d="M 283.305 0.395 A 16.981 16.981 0 0 0 273.236 4.64 A 41.087 41.087 0 0 0 267.326 10.531 C 264.67 13.762 262.604 17.176 260.49 20.692 A 81.464 81.464 0 0 1 261.643 11.757 C 262.062 9.265 262.481 6.809 262.702 4.353 A 42.25 42.25 0 0 0 262.803 3.006 C 262.799 2.07 262.112 1.283 261.213 1.065 A 6.024 6.024 0 0 0 259.37 0.618 A 4.858 4.858 0 0 0 259.022 0.605 A 3.235 3.235 0 0 0 256.556 1.591 A 2.957 2.957 0 0 0 256.509 1.643 C 255.102 3.188 254.534 5.223 253.965 7.196 A 79.144 79.144 0 0 1 253.745 7.951 C 251.636 16.193 251.022 24.713 250.584 33.178 A 228.481 228.481 0 0 0 250.306 43.262 A 182.313 182.313 0 0 0 250.305 43.942 A 126.769 126.769 0 0 0 252.01 65.78 C 252.327 67.385 253.228 69.207 254.983 69.572 C 255.269 69.629 255.567 69.658 255.868 69.658 A 4.647 4.647 0 0 0 256.086 69.653 A 3.764 3.764 0 0 0 258.731 68.502 A 3.436 3.436 0 0 0 259.298 66.541 A 6.36 6.36 0 0 0 259.3 66.402 C 259.3 65.945 259.253 65.479 259.207 65.02 A 16.728 16.728 0 0 1 259.117 63.894 A 145.704 145.704 0 0 1 258.793 53.692 A 234.136 234.136 0 0 1 258.818 50.35 C 258.868 46.872 258.984 43.393 259.093 39.919 C 259.228 37.125 259.287 34.313 259.68 31.542 A 37.479 37.479 0 0 1 264.945 19.717 C 268.159 14.665 272.09 9.923 277.112 6.583 C 278.488 5.685 280.145 4.933 281.812 4.933 A 5.466 5.466 0 0 1 281.998 4.936 A 5.029 5.029 0 0 1 283.322 5.156 A 4.846 4.846 0 0 1 286.274 8.895 C 286.295 9.003 286.314 9.111 286.33 9.22 A 5.852 5.852 0 0 1 286.334 9.254 A 20.666 20.666 0 0 1 286.601 12.681 C 286.601 14.432 286.424 16.187 286.21 17.917 A 54.185 54.185 0 0 1 282.857 30.679 A 72.243 72.243 0 0 1 281.108 34.747 A 30.062 30.062 0 0 0 273.946 37.431 C 272.223 38.366 270.719 39.465 269.542 40.714 A 12.09 12.09 0 0 0 268.781 41.604 A 7.734 7.734 0 0 0 267.018 45.982 A 4.834 4.834 0 0 0 267.018 46.057 A 4.781 4.781 0 0 0 267.018 46.111 A 4.376 4.376 0 0 0 267.295 47.612 A 4.17 4.17 0 0 0 270.343 49.864 C 270.786 49.962 271.24 50.009 271.682 50.009 A 6.183 6.183 0 0 0 271.843 50.007 A 14.853 14.853 0 0 0 280.546 46.581 A 26.164 26.164 0 0 0 281.044 46.195 C 284.197 43.663 286.669 40.398 288.711 36.932 A 13.425 13.425 0 0 1 289.149 36.908 C 289.638 36.888 290.273 36.881 290.994 36.881 A 162.692 162.692 0 0 1 292.51 36.889 C 294.305 36.906 296.323 36.944 297.897 36.95 A 106.154 106.154 0 0 0 298.295 36.951 C 298.707 36.951 299.081 36.948 299.403 36.941 A 22.863 22.863 0 0 0 299.807 36.93 C 300.153 36.916 300.415 36.367 300.483 35.817 A 2.227 2.227 0 0 0 300.5 35.545 C 300.5 35.286 300.45 35.048 300.337 34.892 A 0.433 0.433 0 0 0 300.107 34.723 A 5.944 5.944 0 0 0 299.394 34.572 C 296.933 34.179 291.462 34.203 290.052 34.2 A 41.114 41.114 0 0 0 294.826 15.628 A 35.686 35.686 0 0 0 294.701 12.651 A 20.568 20.568 0 0 0 294.668 12.305 A 14.285 14.285 0 0 0 290.993 3.676 A 10.516 10.516 0 0 0 283.541 0.392 A 9.079 9.079 0 0 0 283.305 0.395 Z M 278.69 39.752 A 37.705 37.705 0 0 0 279.689 38.09 A 142.56 142.56 0 0 1 279.36 38.224 C 276.144 39.535 272.248 41.029 270.506 43.804 C 270.158 44.358 269.822 45.052 269.766 45.745 A 2.471 2.471 0 0 0 269.758 45.944 A 2.287 2.287 0 0 0 269.761 46.065 A 1.968 1.968 0 0 0 269.988 46.895 C 270.221 47.223 270.557 47.344 270.916 47.344 A 1.859 1.859 0 0 0 271.225 47.317 C 271.392 47.288 271.559 47.24 271.719 47.179 A 3.401 3.401 0 0 0 272.213 46.944 C 274.471 45.571 276.878 42.604 278.69 39.752 Z" id="6" vector-effect="non-scaling-stroke"/><path d="M 301.342 57.271 A 8.312 8.312 0 0 0 304.222 59.34 A 6.034 6.034 0 0 0 306.534 59.81 C 309.342 59.81 312.452 57.755 315.197 52.338 A 34.244 34.244 0 0 0 316.204 50.155 C 318.515 44.67 320.465 38.738 321.104 34.891 A 2.478 2.478 0 0 0 321.13 34.68 A 2.054 2.054 0 0 0 321.136 34.519 C 321.136 34.138 321.021 33.862 320.843 33.678 A 1.009 1.009 0 0 0 320.107 33.386 A 1.263 1.263 0 0 0 320.017 33.389 A 1.207 1.207 0 0 0 318.951 34.145 A 147.513 147.513 0 0 0 317.85 37.484 C 316.838 40.655 315.914 43.702 314.308 47.572 A 88.027 88.027 0 0 1 313.253 50.008 A 34.881 34.881 0 0 1 312.399 51.78 C 311.072 54.33 309.953 55.478 309.004 55.478 A 1.334 1.334 0 0 1 308.125 55.118 C 307.79 54.83 307.48 54.374 307.193 53.766 A 9.736 9.736 0 0 1 306.916 53.117 A 20.487 20.487 0 0 1 306.33 49.708 A 31.707 31.707 0 0 1 306.204 46.796 A 58.17 58.17 0 0 1 306.675 39.924 C 307.041 36.887 307.572 33.75 308.096 30.677 A 13.788 13.788 0 0 0 308.212 29.867 C 308.24 29.612 308.257 29.37 308.261 29.14 A 5.894 5.894 0 0 0 308.262 29.042 C 308.262 27.355 307.511 26.36 305.089 26.002 A 5.233 5.233 0 0 0 304.323 25.945 A 4.18 4.18 0 0 0 300.773 27.815 C 300.443 28.291 300.17 28.861 299.966 29.528 A 8.257 8.257 0 0 0 299.799 30.167 A 85.573 85.573 0 0 0 298.651 36.493 C 298.298 38.986 298.07 41.48 298.018 43.856 A 46.657 46.657 0 0 0 298.007 44.868 A 33.46 33.46 0 0 0 298.425 50.405 C 298.907 53.249 299.832 55.644 301.342 57.271 Z M 303.667 16.221 A 2.512 2.512 0 0 0 304.924 18.094 C 305.481 18.455 306.163 18.696 306.846 18.799 A 5.017 5.017 0 0 0 307.598 18.857 C 308.398 18.857 309.131 18.65 309.578 18.206 A 1.512 1.512 0 0 0 309.825 17.888 A 7.161 7.161 0 0 0 310.217 17.079 C 310.818 15.641 311.306 13.536 311.333 12.097 A 6.581 6.581 0 0 0 311.334 11.974 A 5.172 5.172 0 0 0 311.321 11.6 C 311.313 11.487 311.301 11.381 311.284 11.283 A 2.584 2.584 0 0 0 311.274 11.229 A 1.534 1.534 0 0 0 310.477 10.211 C 310.174 10.033 309.804 9.901 309.399 9.813 A 6.18 6.18 0 0 0 308.106 9.682 A 6.994 6.994 0 0 0 307.884 9.686 C 306.799 9.72 305.713 10.007 305.067 10.522 A 1.727 1.727 0 0 0 304.64 11.002 A 7.585 7.585 0 0 0 303.793 13.486 C 303.703 14.005 303.655 14.525 303.64 15.018 A 11.437 11.437 0 0 0 303.634 15.372 A 10.938 10.938 0 0 0 303.65 15.966 A 10.034 10.034 0 0 0 303.667 16.221 Z" id="7" vector-effect="non-scaling-stroke"/><path d="M 314.835 57.434 C 316.281 62.357 320.165 65.53 324.791 65.53 A 11.018 11.018 0 0 0 328.322 64.931 C 330.762 64.107 333.283 62.405 335.675 59.647 A 26.748 26.748 0 0 0 336.626 58.486 A 37.278 37.278 0 0 0 338.14 56.356 C 342.155 50.325 347.297 39.95 349.664 35.119 A 910.514 910.514 0 0 0 349.805 34.83 A 1.734 1.734 0 0 0 349.912 34.558 C 349.951 34.428 349.968 34.304 349.968 34.187 A 1.112 1.112 0 0 0 349.176 33.138 A 1.533 1.533 0 0 0 348.665 33.052 C 348.179 33.052 347.652 33.273 347.266 33.789 C 342.529 42.051 340.229 47.696 333.942 55.909 A 34.017 34.017 0 0 1 332.622 57.531 C 330.424 60.063 328.187 61.789 326.334 62.032 A 3.378 3.378 0 0 1 325.896 62.061 A 2.802 2.802 0 0 1 323.532 60.757 C 322.674 59.551 322.116 57.455 321.995 54.25 A 36.258 36.258 0 0 1 321.97 52.879 A 44.595 44.595 0 0 1 321.988 51.624 A 50.484 50.484 0 0 1 322.004 51.148 A 63.824 63.824 0 0 1 323.114 41.158 C 324.497 34.197 327.102 28.792 330.922 25.423 A 16.508 16.508 0 0 1 331.344 25.062 A 9.618 9.618 0 0 1 332.329 24.345 C 333.276 23.748 334.115 23.501 334.865 23.501 C 336.561 23.501 337.801 24.763 338.804 26.097 A 4.244 4.244 0 0 0 339.162 26.516 C 339.563 26.926 339.982 27.167 340.388 27.271 A 1.908 1.908 0 0 0 340.862 27.332 A 1.94 1.94 0 0 0 342.639 26.059 A 2.483 2.483 0 0 0 342.817 25.124 C 342.817 24.628 342.68 24.086 342.363 23.537 A 7.657 7.657 0 0 0 339.262 20.695 C 337.779 19.907 335.994 19.431 334.138 19.337 A 13.479 13.479 0 0 0 333.452 19.319 C 331.096 19.319 328.674 19.938 326.652 21.312 A 26.749 26.749 0 0 0 320.231 28.17 C 316.337 33.969 313.707 41.692 313.707 49.266 C 313.707 52.042 314.061 54.799 314.835 57.434 Z" id="8" vector-effect="non-scaling-stroke"/><path d="M 377.338 32.008 A 38.785 38.785 0 0 0 374.303 33.076 C 370.086 34.739 365.057 37.336 361.005 39.629 A 144.338 144.338 0 0 0 359.282 40.619 A 263.962 263.962 0 0 1 356.533 36.122 C 355.22 33.861 354.188 31.704 353.87 29.488 A 20.454 20.454 0 0 1 353.707 27.951 A 16.616 16.616 0 0 1 353.668 26.841 A 11.662 11.662 0 0 1 353.921 24.32 C 354.515 21.645 356.138 20.164 358.55 20.164 A 6.652 6.652 0 0 1 359.536 20.241 A 8.258 8.258 0 0 1 360.256 20.383 C 363.156 21.086 365.424 25.114 365.774 28.464 A 8.853 8.853 0 0 1 365.809 28.894 A 2.069 2.069 0 0 0 365.929 29.499 C 366.151 30.1 366.644 30.404 367.166 30.404 C 367.956 30.404 368.81 29.709 368.892 28.297 A 14.368 14.368 0 0 0 368.916 27.467 C 368.916 23.443 367.243 19.027 363.288 17.171 C 362.468 16.787 361.641 16.487 360.814 16.271 A 12.78 12.78 0 0 0 357.582 15.849 C 355.062 15.849 352.641 16.631 350.553 18.15 A 11.728 11.728 0 0 0 346.017 25.026 A 12.319 12.319 0 0 0 345.708 27.785 A 13.423 13.423 0 0 0 345.906 30.063 A 14.35 14.35 0 0 0 346.01 30.604 A 30.133 30.133 0 0 0 349.517 39.047 C 350.383 40.576 351.319 42.091 352.239 43.607 A 200.036 200.036 0 0 1 352.953 44.791 C 347.149 49.485 344.795 55.25 344.71 59.873 A 14.133 14.133 0 0 0 344.707 60.134 C 344.707 62.843 345.493 65.138 346.822 66.561 A 8.83 8.83 0 0 0 349.89 68.711 A 9.057 9.057 0 0 0 353.387 69.396 A 9.952 9.952 0 0 0 354.132 69.368 C 359.368 68.974 364.604 64.488 364.935 57.933 A 13.073 13.073 0 0 0 364.951 57.275 A 13.396 13.396 0 0 0 364.94 56.741 C 364.721 51.246 362.837 46.836 360.676 42.989 A 94.299 94.299 0 0 1 362.816 41.723 C 366.712 39.485 371.236 37.213 375.213 35.437 A 101.089 101.089 0 0 1 378.807 33.91 C 379.365 33.687 379.628 33.381 379.674 33.075 A 0.664 0.664 0 0 0 379.681 32.977 A 0.842 0.842 0 0 0 379.424 32.403 C 379.162 32.127 378.718 31.925 378.189 31.9 A 2.367 2.367 0 0 0 378.074 31.897 A 2.5 2.5 0 0 0 377.601 31.943 A 2.679 2.679 0 0 0 377.338 32.008 Z M 354.419 47.334 C 356.335 50.818 357.808 54.355 357.824 58.094 A 15.696 15.696 0 0 1 357.824 58.163 C 357.824 63.181 355.389 65.686 352.955 66.085 A 4.306 4.306 0 0 1 352.258 66.142 A 3.982 3.982 0 0 1 348.909 64.358 A 4.38 4.38 0 0 1 348.662 63.94 C 348.178 63.008 347.924 61.849 347.909 60.548 A 10.671 10.671 0 0 1 347.908 60.422 C 347.908 56.537 350.009 51.43 354.419 47.334 Z" id="9" vector-effect="non-scaling-stroke"/></g></svg>